<svg width="36" height="37" viewBox="0 0 36 37" fill="none" xmlns="http://www.w3.org/2000/svg">
<path d="M25.0202 2.93001C22.5002 2.82243 20.0203 3.58864 18.0002 5.09901C15.9801 3.58864 13.5002 2.82243 10.9802 2.93001C3.9602 2.93001 0.450195 7.14201 0.450195 13.46C0.450195 23.171 9.4502 29.903 16.3082 33.638C16.8271 33.9216 17.4089 34.0702 18.0002 34.0702C18.5915 34.0702 19.1733 33.9216 19.6922 33.638C26.5952 29.903 35.5502 23.171 35.5502 13.46C35.5502 7.14201 32.0402 2.93001 25.0202 2.93001Z" fill="#FFC3B9" stroke="#231F20" stroke-width="0.5" stroke-miterlimit="10"/>
<path d="M25.5244 6.53904C29.4664 6.12504 30.8434 8.33904 31.4104 9.92304" stroke="white" stroke-width="0.5" stroke-miterlimit="10" stroke-linecap="round"/>
</svg>
