<svg width="145" height="144" viewBox="0 0 145 144" fill="none" xmlns="http://www.w3.org/2000/svg">
<rect x="0.5" width="144" height="144" rx="12" fill="#553F35"/>
<path d="M66.5 123V111H54.5V99H66.5V86.4C58.6 85 52.124 81.224 47.072 75.072C42.02 68.92 39.496 61.796 39.5 53.7C39.5 44.6 42.726 36.876 49.178 30.528C55.63 24.18 63.404 21.004 72.5 21C81.6 21 89.376 24.176 95.828 30.528C102.28 36.88 105.504 44.604 105.5 53.7C105.5 61.8 102.974 68.926 97.922 75.078C92.87 81.23 86.396 85.004 78.5 86.4V99H90.5V111H78.5V123H66.5ZM72.5 75C78.3 75 83.25 72.95 87.35 68.85C91.45 64.75 93.5 59.8 93.5 54C93.5 48.2 91.45 43.25 87.35 39.15C83.25 35.05 78.3 33 72.5 33C66.7 33 61.75 35.05 57.65 39.15C53.55 43.25 51.5 48.2 51.5 54C51.5 59.8 53.55 64.75 57.65 68.85C61.75 72.95 66.7 75 72.5 75Z" fill="#EDAFB8"/>
</svg>
