<svg width="188" height="47" viewBox="0 0 188 47" fill="none" xmlns="http://www.w3.org/2000/svg">
<g clip-path="url(#clip0_14_291)">
<path d="M74.1928 27.5284L84.5666 40.2856H76.375L67.1428 28.5694V40.2856H60.4284V6.71439H67.1428V26.4544L75.67 16.7856H84.2306L74.1928 27.5284ZM47.3356 16.1144C45.8655 16.1365 44.4227 16.5145 43.1306 17.2161C41.8386 17.9177 40.7357 18.9219 39.9166 20.1428V16.7856H33.5716V40.2856H40.2856V29.3078C40.1975 28.511 40.2743 27.7046 40.5113 26.9388C40.7483 26.1729 41.1403 25.4641 41.6631 24.8563C42.1858 24.2485 42.828 23.7548 43.5498 23.406C44.2716 23.0571 45.0574 22.8605 45.8584 22.8284C49.7528 22.8284 50.3572 26.6556 50.3572 29.3078V40.2856H57.0716V27.8306C57.0716 20.445 54.6206 16.1144 47.47 16.1144H47.3356ZM107.428 29.0728C107.454 29.5651 107.454 30.0575 107.428 30.55H89.8034V30.785C90.0895 32.185 90.8651 33.4371 91.9911 34.3169C93.117 35.1967 94.5196 35.6465 95.9472 35.5856C97.0797 35.6348 98.2105 35.4551 99.2719 35.0571C100.333 34.6591 101.303 34.0511 102.124 33.2694L106.589 36.6266C105.174 38.0708 103.472 39.2024 101.593 39.9483C99.7136 40.6942 97.6988 41.0379 95.6784 40.9572C94.0053 41.0629 92.329 40.8083 90.7627 40.2106C89.1964 39.613 87.7766 38.6861 86.5992 37.4928C85.4218 36.2994 84.5141 34.8673 83.9376 33.2931C83.3611 31.7189 83.129 30.0393 83.2572 28.3678C83.2228 26.7177 83.5286 25.0781 84.1556 23.5514C84.7826 22.0246 85.7174 20.6434 86.9017 19.4938C88.086 18.3442 89.4943 17.4508 91.039 16.8694C92.5837 16.288 94.2316 16.031 95.88 16.1144C102.192 16.1144 107.428 20.5794 107.428 29.0728ZM101.184 26.1856C101.16 25.5207 101 24.8677 100.715 24.2665C100.429 23.6654 100.025 23.1285 99.5252 22.6888C99.0258 22.2491 98.4421 21.9156 97.8097 21.7088C97.1773 21.5019 96.5093 21.426 95.8466 21.4856C92.8944 21.1665 90.2209 23.2459 89.8034 26.1856H101.184ZM6.71439 6.71439H0V40.2856H20.1428V33.572H6.71439V6.71439ZM127.572 6.71439H134.286V40.2856H127.941V37.9356C127.135 38.9282 126.108 39.7185 124.942 40.2432C123.776 40.7679 122.504 41.0124 121.227 40.9572C119.666 40.9171 118.13 40.5584 116.714 39.9029C115.297 39.2475 114.029 38.3092 112.988 37.1458C111.948 35.9824 111.156 34.6184 110.662 33.1377C110.167 31.657 109.981 30.0909 110.114 28.5356C109.956 26.9781 110.123 25.4047 110.606 23.9154C111.089 22.4262 111.876 21.0537 112.918 19.8853C113.96 18.717 115.234 17.7783 116.659 17.1291C118.083 16.4799 119.627 16.1343 121.193 16.1144C122.359 16.0632 123.523 16.2447 124.618 16.6481C125.714 17.0516 126.717 17.669 127.572 18.4644V6.71439ZM128.075 28.5356C128.181 27.7604 128.119 26.9716 127.894 26.2223C127.668 25.473 127.285 24.7808 126.77 24.1922C126.254 23.6036 125.619 23.1323 124.906 22.8102C124.193 22.4881 123.419 22.3227 122.637 22.325C119.425 22.5582 116.991 25.3201 117.164 28.5356C116.991 31.7511 119.425 34.5134 122.637 34.7466C123.419 34.7489 124.193 34.5835 124.906 34.2613C125.619 33.9392 126.254 33.4679 126.77 32.8793C127.285 32.2907 127.669 31.5984 127.894 30.849C128.119 30.0997 128.181 29.3108 128.075 28.5356ZM26.8572 6.0428C25.7775 6.05802 24.7437 6.48241 23.9648 7.23028C23.1859 7.97814 22.7197 8.99374 22.6606 10.072C22.6606 12.3893 24.5395 14.2682 26.8572 14.2682C29.1749 14.2682 31.053 12.3889 31.053 10.072C30.9938 8.99387 30.5277 7.97841 29.7489 7.23063C28.97 6.48286 27.9364 6.05847 26.8568 6.04317M23.5 40.2856H30.2144V16.7856H23.5V40.2856ZM188 3.3572V43.6428C188 44.5332 187.646 45.3871 187.017 46.0167C186.387 46.6463 185.533 47 184.643 47H144.357C143.467 47 142.613 46.6463 141.983 46.0167C141.354 45.3871 141 44.5332 141 43.6428V3.3572C141 2.46681 141.354 1.6129 141.983 0.9833C142.613 0.353703 143.467 0 144.357 0L184.643 0C185.533 0 186.387 0.353703 187.017 0.9833C187.646 1.6129 188 2.46681 188 3.3572ZM154.428 16.7856H147.714V40.2856H154.428V16.7856ZM155.268 10.0716C155.268 7.7539 153.389 5.875 151.072 5.875C148.754 5.875 146.875 7.7539 146.875 10.0716C146.875 12.3889 148.754 14.2678 151.072 14.2678C153.389 14.2678 155.268 12.3889 155.268 10.0716ZM181.286 27.8306C181.286 20.445 178.835 16.1144 171.684 16.1144C170.191 16.1146 168.721 16.4822 167.404 17.1847C166.087 17.8873 164.963 18.9032 164.131 20.1428V16.7856H157.786V40.2856H164.5V29.3078C164.412 28.511 164.489 27.7046 164.726 26.9388C164.963 26.1729 165.355 25.4641 165.877 24.8563C166.4 24.2485 167.042 23.7548 167.764 23.406C168.486 23.0571 169.272 22.8605 170.073 22.8284C173.967 22.8284 174.572 26.6556 174.572 29.3078V40.2856H181.286V27.8306Z" fill="#E69792"/>
</g>
<defs>
<clipPath id="clip0_14_291">
<rect width="188" height="47" fill="white"/>
</clipPath>
</defs>
</svg>
