<svg width="145" height="144" viewBox="0 0 145 144" fill="none" xmlns="http://www.w3.org/2000/svg">
<rect x="0.5" width="144" height="144" rx="12" fill="#553F35"/>
<path d="M120.5 24V60H108.5V44.55L84.65 68.25C86.55 71.05 88 74.026 89 77.178C90 80.33 90.5 83.604 90.5 87C90.5 96.2 87.3 104 80.9 110.4C74.5 116.8 66.7 120 57.5 120C48.3 120 40.5 116.8 34.1 110.4C27.7 104 24.5 96.2 24.5 87C24.5 77.8 27.7 70 34.1 63.6C40.5 57.2 48.3 54 57.5 54C60.8 54 64.05 54.474 67.25 55.422C70.45 56.37 73.4 57.846 76.1 59.85L99.95 36H84.5V24H120.5ZM57.5 66C51.7 66 46.75 68.05 42.65 72.15C38.55 76.25 36.5 81.2 36.5 87C36.5 92.8 38.55 97.75 42.65 101.85C46.75 105.95 51.7 108 57.5 108C63.3 108 68.25 105.95 72.35 101.85C76.45 97.75 78.5 92.8 78.5 87C78.5 81.2 76.45 76.25 72.35 72.15C68.25 68.05 63.3 66 57.5 66Z" fill="#B0C4B1"/>
</svg>
